<svg width="155" height="40" viewBox="0 0 155 40" fill="none" xmlns="http://www.w3.org/2000/svg">
<g clip-path="url(#clip0_0_65)">
<g filter="url(#filter0_d_0_65)">
<rect width="155" height="40" rx="4" fill="black" fill-opacity="0.32" shape-rendering="crispEdges"/>
</g>
<path d="M69.2812 22.4453V24H63.5703V22.4453H69.2812ZM64.1172 12.625V24H62.1562V12.625H64.1172ZM74.5359 24.1562C73.9109 24.1562 73.3458 24.0547 72.8406 23.8516C72.3406 23.6432 71.9135 23.3542 71.5594 22.9844C71.2104 22.6146 70.9422 22.1797 70.7547 21.6797C70.5672 21.1797 70.4734 20.6406 70.4734 20.0625V19.75C70.4734 19.0885 70.5698 18.4896 70.7625 17.9531C70.9552 17.4167 71.2234 16.9583 71.5672 16.5781C71.9109 16.1927 72.3172 15.8984 72.7859 15.6953C73.2547 15.4922 73.7625 15.3906 74.3094 15.3906C74.9135 15.3906 75.4422 15.4922 75.8953 15.6953C76.3484 15.8984 76.7234 16.1849 77.0203 16.5547C77.3224 16.9193 77.5464 17.3542 77.6922 17.8594C77.8432 18.3646 77.9187 18.9219 77.9187 19.5312V20.3359H71.3875V18.9844H76.0594V18.8359C76.049 18.4974 75.9812 18.1797 75.8562 17.8828C75.7365 17.5859 75.5516 17.3464 75.3016 17.1641C75.0516 16.9818 74.7182 16.8906 74.3016 16.8906C73.9891 16.8906 73.7104 16.9583 73.4656 17.0938C73.226 17.224 73.0255 17.4141 72.8641 17.6641C72.7026 17.9141 72.5776 18.2161 72.4891 18.5703C72.4057 18.9193 72.3641 19.3125 72.3641 19.75V20.0625C72.3641 20.4323 72.4135 20.776 72.5125 21.0938C72.6167 21.4062 72.7677 21.6797 72.9656 21.9141C73.1635 22.1484 73.4031 22.3333 73.6844 22.4688C73.9656 22.599 74.2859 22.6641 74.6453 22.6641C75.0984 22.6641 75.5021 22.5729 75.8562 22.3906C76.2104 22.2083 76.5177 21.9505 76.7781 21.6172L77.7703 22.5781C77.588 22.8438 77.351 23.099 77.0594 23.3438C76.7677 23.5833 76.4109 23.7786 75.9891 23.9297C75.5724 24.0807 75.088 24.1562 74.5359 24.1562ZM83.0406 22.6562C83.3479 22.6562 83.624 22.5964 83.8687 22.4766C84.1187 22.3516 84.3193 22.1797 84.4703 21.9609C84.6266 21.7422 84.7125 21.4896 84.7281 21.2031H86.5016C86.4911 21.75 86.3297 22.2474 86.0172 22.6953C85.7047 23.1432 85.2906 23.5 84.775 23.7656C84.2594 24.026 83.6891 24.1562 83.0641 24.1562C82.4182 24.1562 81.8557 24.0469 81.3766 23.8281C80.8974 23.6042 80.499 23.2969 80.1812 22.9062C79.8635 22.5156 79.624 22.0651 79.4625 21.5547C79.3062 21.0443 79.2281 20.4974 79.2281 19.9141V19.6406C79.2281 19.0573 79.3062 18.5104 79.4625 18C79.624 17.4844 79.8635 17.0312 80.1812 16.6406C80.499 16.25 80.8974 15.9453 81.3766 15.7266C81.8557 15.5026 82.4156 15.3906 83.0562 15.3906C83.7333 15.3906 84.3271 15.526 84.8375 15.7969C85.3479 16.0625 85.749 16.4349 86.0406 16.9141C86.3375 17.388 86.4911 17.9401 86.5016 18.5703H84.7281C84.7125 18.2578 84.6344 17.9766 84.4937 17.7266C84.3583 17.4714 84.1656 17.2682 83.9156 17.1172C83.6708 16.9661 83.3766 16.8906 83.0328 16.8906C82.6526 16.8906 82.3375 16.9688 82.0875 17.125C81.8375 17.276 81.6422 17.4844 81.5016 17.75C81.3609 18.0104 81.2594 18.3047 81.1969 18.6328C81.1396 18.9557 81.1109 19.2917 81.1109 19.6406V19.9141C81.1109 20.263 81.1396 20.6016 81.1969 20.9297C81.2542 21.2578 81.3531 21.5521 81.4937 21.8125C81.6396 22.0677 81.8375 22.2734 82.0875 22.4297C82.3375 22.5807 82.6552 22.6562 83.0406 22.6562ZM92.0219 15.5469V16.9219H87.2563V15.5469H92.0219ZM88.6313 13.4766H90.5141V21.6641C90.5141 21.9245 90.5505 22.125 90.6234 22.2656C90.7016 22.401 90.8083 22.4922 90.9438 22.5391C91.0792 22.5859 91.238 22.6094 91.4203 22.6094C91.5505 22.6094 91.6755 22.6016 91.7953 22.5859C91.9151 22.5703 92.0115 22.5547 92.0844 22.5391L92.0922 23.9766C91.9359 24.0234 91.7536 24.0651 91.5453 24.1016C91.3422 24.138 91.1078 24.1562 90.8422 24.1562C90.4099 24.1562 90.0271 24.0807 89.6938 23.9297C89.3604 23.7734 89.1 23.5208 88.9125 23.1719C88.725 22.8229 88.6313 22.3594 88.6313 21.7812V13.4766ZM98.7609 22.0078V15.5469H100.652V24H98.8703L98.7609 22.0078ZM99.0266 20.25L99.6594 20.2344C99.6594 20.8021 99.5969 21.3255 99.4719 21.8047C99.3469 22.2786 99.1542 22.6927 98.8937 23.0469C98.6333 23.3958 98.3 23.6693 97.8937 23.8672C97.4875 24.0599 97.0005 24.1562 96.4328 24.1562C96.0214 24.1562 95.6437 24.0964 95.3 23.9766C94.9562 23.8568 94.6594 23.6719 94.4094 23.4219C94.1646 23.1719 93.9745 22.8464 93.8391 22.4453C93.7036 22.0443 93.6359 21.5651 93.6359 21.0078V15.5469H95.5187V21.0234C95.5187 21.3307 95.5552 21.5885 95.6281 21.7969C95.701 22 95.8 22.1641 95.925 22.2891C96.05 22.4141 96.1958 22.5026 96.3625 22.5547C96.5292 22.6068 96.7062 22.6328 96.8937 22.6328C97.4302 22.6328 97.8521 22.5286 98.1594 22.3203C98.4719 22.1068 98.6932 21.8203 98.8234 21.4609C98.9589 21.1016 99.0266 20.6979 99.0266 20.25ZM104.672 17.1562V24H102.789V15.5469H104.586L104.672 17.1562ZM107.258 15.4922L107.242 17.2422C107.128 17.2214 107.003 17.2057 106.867 17.1953C106.737 17.1849 106.607 17.1797 106.477 17.1797C106.154 17.1797 105.87 17.2266 105.625 17.3203C105.38 17.4089 105.174 17.5391 105.008 17.7109C104.846 17.8776 104.721 18.0807 104.633 18.3203C104.544 18.5599 104.492 18.8281 104.477 19.125L104.047 19.1562C104.047 18.625 104.099 18.1328 104.203 17.6797C104.307 17.2266 104.464 16.8281 104.672 16.4844C104.885 16.1406 105.151 15.8724 105.469 15.6797C105.792 15.487 106.164 15.3906 106.586 15.3906C106.701 15.3906 106.823 15.401 106.953 15.4219C107.089 15.4427 107.19 15.4661 107.258 15.4922ZM112.208 24.1562C111.583 24.1562 111.018 24.0547 110.513 23.8516C110.013 23.6432 109.585 23.3542 109.231 22.9844C108.882 22.6146 108.614 22.1797 108.427 21.6797C108.239 21.1797 108.145 20.6406 108.145 20.0625V19.75C108.145 19.0885 108.242 18.4896 108.434 17.9531C108.627 17.4167 108.895 16.9583 109.239 16.5781C109.583 16.1927 109.989 15.8984 110.458 15.6953C110.927 15.4922 111.434 15.3906 111.981 15.3906C112.585 15.3906 113.114 15.4922 113.567 15.6953C114.02 15.8984 114.395 16.1849 114.692 16.5547C114.994 16.9193 115.218 17.3542 115.364 17.8594C115.515 18.3646 115.591 18.9219 115.591 19.5312V20.3359H109.059V18.9844H113.731V18.8359C113.721 18.4974 113.653 18.1797 113.528 17.8828C113.408 17.5859 113.223 17.3464 112.973 17.1641C112.723 16.9818 112.39 16.8906 111.973 16.8906C111.661 16.8906 111.382 16.9583 111.138 17.0938C110.898 17.224 110.697 17.4141 110.536 17.6641C110.374 17.9141 110.249 18.2161 110.161 18.5703C110.078 18.9193 110.036 19.3125 110.036 19.75V20.0625C110.036 20.4323 110.085 20.776 110.184 21.0938C110.289 21.4062 110.44 21.6797 110.638 21.9141C110.835 22.1484 111.075 22.3333 111.356 22.4688C111.638 22.599 111.958 22.6641 112.317 22.6641C112.77 22.6641 113.174 22.5729 113.528 22.3906C113.882 22.2083 114.19 21.9505 114.45 21.6172L115.442 22.5781C115.26 22.8438 115.023 23.099 114.731 23.3438C114.44 23.5833 114.083 23.7786 113.661 23.9297C113.244 24.0807 112.76 24.1562 112.208 24.1562Z" fill="white"/>
<path fill-rule="evenodd" clip-rule="evenodd" d="M36 28C36 28.7981 36.7167 29.2063 37 29L50.5578 22.2211C50.8288 22.0856 51 21.8086 51 21.5056V20.4944C51 20.1914 50.8288 19.9144 50.5578 19.7789L37 13C36.7167 12.7944 36 13.2014 36 14V28Z" fill="white"/>
</g>
<defs>
<filter id="filter0_d_0_65" x="-4" y="0" width="163" height="48" filterUnits="userSpaceOnUse" color-interpolation-filters="sRGB">
<feFlood flood-opacity="0" result="BackgroundImageFix"/>
<feColorMatrix in="SourceAlpha" type="matrix" values="0 0 0 0 0 0 0 0 0 0 0 0 0 0 0 0 0 0 127 0" result="hardAlpha"/>
<feOffset dy="4"/>
<feGaussianBlur stdDeviation="2"/>
<feComposite in2="hardAlpha" operator="out"/>
<feColorMatrix type="matrix" values="0 0 0 0 0 0 0 0 0 0 0 0 0 0 0 0 0 0 0.25 0"/>
<feBlend mode="normal" in2="BackgroundImageFix" result="effect1_dropShadow_0_65"/>
<feBlend mode="normal" in="SourceGraphic" in2="effect1_dropShadow_0_65" result="shape"/>
</filter>
<clipPath id="clip0_0_65">
<rect width="155" height="40" fill="white"/>
</clipPath>
</defs>
</svg>
