<svg width="154" height="40" viewBox="0 0 154 40" fill="none" xmlns="http://www.w3.org/2000/svg">
<g clip-path="url(#clip0_0_70)">
<rect width="154" height="40" rx="4" fill="black" fill-opacity="0.32"/>
<path d="M63.9531 12.625H65.7031L68.9922 21.3984L72.2734 12.625H74.0234L69.6797 24H68.2891L63.9531 12.625ZM63.1562 12.625H64.8203L65.1094 20.2188V24H63.1562V12.625ZM73.1562 12.625H74.8281V24H72.8672V20.2188L73.1562 12.625ZM79.6219 23.0781L81.9187 15.5469H83.9344L80.5437 25.2891C80.4656 25.4974 80.3641 25.724 80.2391 25.9688C80.1141 26.2135 79.95 26.4453 79.7469 26.6641C79.549 26.888 79.3016 27.0677 79.0047 27.2031C78.7078 27.3438 78.3484 27.4141 77.9266 27.4141C77.7599 27.4141 77.5984 27.3984 77.4422 27.3672C77.2911 27.3411 77.1479 27.3125 77.0125 27.2812L77.0047 25.8438C77.0568 25.849 77.1193 25.8542 77.1922 25.8594C77.2703 25.8646 77.3328 25.8672 77.3797 25.8672C77.6922 25.8672 77.9526 25.8281 78.1609 25.75C78.3693 25.6771 78.5385 25.5573 78.6687 25.3906C78.8042 25.224 78.9187 25 79.0125 24.7188L79.6219 23.0781ZM78.325 15.5469L80.3328 21.875L80.6687 23.8594L79.3641 24.1953L76.2937 15.5469H78.325ZM96.7094 22.4453V24H90.9984V22.4453H96.7094ZM91.5453 12.625V24H89.5844V12.625H91.5453ZM100.253 15.5469V24H98.3625V15.5469H100.253ZM98.2375 13.3281C98.2375 13.0417 98.3312 12.8047 98.5187 12.6172C98.7115 12.4245 98.9771 12.3281 99.3156 12.3281C99.649 12.3281 99.912 12.4245 100.105 12.6172C100.297 12.8047 100.394 13.0417 100.394 13.3281C100.394 13.6094 100.297 13.8438 100.105 14.0312C99.912 14.2188 99.649 14.3125 99.3156 14.3125C98.9771 14.3125 98.7115 14.2188 98.5187 14.0312C98.3312 13.8438 98.2375 13.6094 98.2375 13.3281ZM107.258 21.7109C107.258 21.5234 107.211 21.3542 107.117 21.2031C107.023 21.0469 106.844 20.9062 106.578 20.7812C106.318 20.6562 105.932 20.5417 105.422 20.4375C104.974 20.3385 104.562 20.2214 104.188 20.0859C103.818 19.9453 103.5 19.776 103.234 19.5781C102.969 19.3802 102.763 19.1458 102.617 18.875C102.471 18.6042 102.398 18.2917 102.398 17.9375C102.398 17.5938 102.474 17.2682 102.625 16.9609C102.776 16.6536 102.992 16.3828 103.273 16.1484C103.555 15.9141 103.896 15.7292 104.297 15.5938C104.703 15.4583 105.156 15.3906 105.656 15.3906C106.365 15.3906 106.971 15.5104 107.477 15.75C107.987 15.9844 108.378 16.3047 108.648 16.7109C108.919 17.112 109.055 17.5651 109.055 18.0703H107.172C107.172 17.8464 107.115 17.638 107 17.4453C106.891 17.2474 106.724 17.0885 106.5 16.9688C106.276 16.8438 105.995 16.7812 105.656 16.7812C105.333 16.7812 105.065 16.8333 104.852 16.9375C104.643 17.0365 104.487 17.1667 104.383 17.3281C104.284 17.4896 104.234 17.6667 104.234 17.8594C104.234 18 104.26 18.1276 104.312 18.2422C104.37 18.3516 104.464 18.4531 104.594 18.5469C104.724 18.6354 104.901 18.7188 105.125 18.7969C105.354 18.875 105.641 18.9505 105.984 19.0234C106.63 19.1589 107.185 19.3333 107.648 19.5469C108.117 19.7552 108.477 20.026 108.727 20.3594C108.977 20.6875 109.102 21.1042 109.102 21.6094C109.102 21.9844 109.021 22.3281 108.859 22.6406C108.703 22.9479 108.474 23.2161 108.172 23.4453C107.87 23.6693 107.508 23.8438 107.086 23.9688C106.669 24.0938 106.201 24.1562 105.68 24.1562C104.914 24.1562 104.266 24.0208 103.734 23.75C103.203 23.474 102.799 23.1224 102.523 22.6953C102.253 22.263 102.117 21.8151 102.117 21.3516H103.938C103.958 21.7005 104.055 21.9792 104.227 22.1875C104.404 22.3906 104.622 22.5391 104.883 22.6328C105.148 22.7214 105.422 22.7656 105.703 22.7656C106.042 22.7656 106.326 22.7214 106.555 22.6328C106.784 22.5391 106.958 22.4141 107.078 22.2578C107.198 22.0964 107.258 21.9141 107.258 21.7109ZM114.825 15.5469V16.9219H110.059V15.5469H114.825ZM111.434 13.4766H113.317V21.6641C113.317 21.9245 113.354 22.125 113.427 22.2656C113.505 22.401 113.611 22.4922 113.747 22.5391C113.882 22.5859 114.041 22.6094 114.223 22.6094C114.354 22.6094 114.479 22.6016 114.598 22.5859C114.718 22.5703 114.815 22.5547 114.888 22.5391L114.895 23.9766C114.739 24.0234 114.557 24.0651 114.348 24.1016C114.145 24.138 113.911 24.1562 113.645 24.1562C113.213 24.1562 112.83 24.0807 112.497 23.9297C112.164 23.7734 111.903 23.5208 111.716 23.1719C111.528 22.8229 111.434 22.3594 111.434 21.7812V13.4766Z" fill="white"/>
<path fill-rule="evenodd" clip-rule="evenodd" d="M50.375 19.375H45.625V14.625C45.625 13.728 44.897 13 44 13C43.103 13 42.375 13.728 42.375 14.625V19.375H37.625C36.728 19.375 36 20.103 36 21C36 21.897 36.728 22.625 37.625 22.625H42.375V27.375C42.375 28.272 43.103 29 44 29C44.897 29 45.625 28.272 45.625 27.375V22.625H50.375C51.272 22.625 52 21.897 52 21C52 20.103 51.272 19.375 50.375 19.375" fill="white"/>
</g>
<defs>
<clipPath id="clip0_0_70">
<rect width="154" height="40" fill="white"/>
</clipPath>
</defs>
</svg>
