<svg version="1.2" xmlns="http://www.w3.org/2000/svg" viewBox="0 0 26 26" width="26" height="26"><defs><clipPath clipPathUnits="userSpaceOnUse" id="cp1"><path d="m-149-2630h1440v2939h-1440z"/></clipPath></defs><style>.a{fill:#999}</style><g clip-path="url(#cp1)"><path class="a" d="m24.3 0h-22.9c-0.8 0-1.4 0.6-1.4 1.4v22.9c0 0.8 0.6 1.4 1.4 1.4h12.3v-9.9h-3.3v-3.9h3.3v-2.9c0-3.3 2.1-5.1 5-5.1 1.4 0 2.7 0.1 3 0.1v3.5h-2c-1.7 0-2 0.8-2 1.9v2.5h3.9l-0.5 3.9h-3.4v9.9h6.6c0.8 0 1.4-0.6 1.4-1.4v-22.9c0-0.8-0.6-1.4-1.4-1.4z"/></g></svg>