<svg version="1.2" xmlns="http://www.w3.org/2000/svg" viewBox="0 0 27 26" width="27" height="26"><defs><clipPath clipPathUnits="userSpaceOnUse" id="cp1"><path d="m-198-2630h1440v2939h-1440z"/></clipPath></defs><style>.a{fill:#999}</style><g clip-path="url(#cp1)"><path fill-rule="evenodd" class="a" d="m13.6 17.1c-2.4 0-4.3-1.9-4.3-4.2 0-2.4 1.9-4.3 4.3-4.3 2.3 0 4.3 1.9 4.3 4.3 0 2.3-2 4.2-4.3 4.2zm0-10.8c-3.7 0-6.6 2.9-6.6 6.6 0 3.6 2.9 6.6 6.6 6.6 3.6 0 6.6-3 6.6-6.6 0-3.7-3-6.6-6.6-6.6zm6.8-1.8c-0.8 0-1.5 0.6-1.5 1.5 0 0.8 0.7 1.5 1.5 1.5 0.9 0 1.6-0.7 1.6-1.5 0-0.9-0.7-1.5-1.6-1.5zm0.8-1.7c0.5 0.3 1 0.5 1.4 1 0.5 0.5 0.8 0.9 1 1.5 0.7 1.7 0.5 5.7 0.5 7.6 0 1.8 0.2 5.9-0.5 7.5-0.2 0.6-0.5 1.1-1 1.5-0.4 0.5-0.9 0.8-1.4 1-1.7 0.7-5.8 0.5-7.6 0.5-1.9 0-5.9 0.2-7.6-0.5-0.6-0.2-1-0.5-1.5-1-0.4-0.4-0.7-0.9-1-1.5-0.6-1.6-0.5-5.7-0.5-7.5 0-1.9-0.1-5.9 0.5-7.6 0.3-0.6 0.6-1 1-1.5 0.5-0.5 0.9-0.7 1.5-1 1.7-0.6 5.7-0.5 7.6-0.5 1.8 0 5.9-0.1 7.6 0.5zm5.1 4.8c-0.1-2.1-0.5-3.9-2-5.4-1.5-1.5-3.4-2-5.4-2.1-1.8-0.1-3.6-0.1-5.3-0.1-1.8 0-3.6 0-5.3 0.1-2.1 0.1-3.9 0.6-5.4 2.1-1.5 1.5-2 3.3-2.1 5.4-0.1 1.7-0.1 3.5-0.1 5.3 0 1.7 0 3.5 0.1 5.3 0.1 2 0.6 3.8 2.1 5.4 1.5 1.5 3.3 1.9 5.4 2 1.7 0.1 3.5 0.1 5.3 0.1 1.7 0 3.5 0 5.3-0.1 2-0.1 3.9-0.5 5.4-2 1.5-1.6 1.9-3.4 2-5.4 0.1-1.8 0.1-3.6 0.1-5.3 0-1.8 0-3.6-0.1-5.3z"/></g></svg>