<svg version="1.2" xmlns="http://www.w3.org/2000/svg" viewBox="0 0 13 14" width="13" height="14"><defs><clipPath clipPathUnits="userSpaceOnUse" id="cp1"><path d="m-1128-28h1440v2939h-1440z"/></clipPath></defs><style>.a{fill:#fff}</style><g clip-path="url(#cp1)"><g style="opacity:.9"><path fill-rule="evenodd" class="a" d="m3 4c0.6-0.7 1.4-1 2.3-1 0.8 0 1.6 0.3 2.3 1 0.6 0.6 0.9 1.4 0.9 2.3 0 0.8-0.3 1.6-0.9 2.3-1.3 1.2-3.4 1.2-4.6 0-1.3-1.3-1.3-3.4 0-4.6zm6.6 5.2c0.6-0.9 0.9-1.9 0.9-2.9 0-1.4-0.5-2.8-1.5-3.8-1-1-2.3-1.5-3.7-1.5-1.5 0-2.8 0.5-3.8 1.5-2 2.1-2 5.4 0 7.5 1 1 2.3 1.5 3.8 1.5 1 0 2-0.3 2.9-0.9l2.9 2.9q0.3 0.3 0.7 0.3 0.4 0 0.7-0.3c0.4-0.4 0.4-1 0-1.4z"/></g></g></svg>