<svg width="24" height="23" viewBox="0 0 24 23" fill="none" xmlns="http://www.w3.org/2000/svg">
<path fill-rule="evenodd" clip-rule="evenodd" d="M9.82568 20.9959C9.98868 22.0079 10.8587 22.7839 11.9167 22.7839C12.9747 22.7839 13.8457 22.0079 14.0077 20.9959H9.82568Z" fill="white"/>
<path fill-rule="evenodd" clip-rule="evenodd" d="M21.658 17.2627C21.157 17.2627 20.75 16.8567 20.75 16.3547V9.7207C20.75 5.2987 17.512 1.6417 13.279 0.967703C13.039 0.453703 12.521 0.0957031 11.917 0.0957031C11.318 0.0957031 10.805 0.447703 10.562 0.953703C6.285 1.5897 3 5.2667 3 9.7207V16.3547C3 16.8567 2.594 17.2627 2.092 17.2627L0.628 17.3877C0.558 17.3877 0.5 17.4447 0.5 17.5157V20.3457H23.334V17.5157C23.334 17.4447 23.276 17.3877 23.205 17.3877L21.658 17.2627Z" fill="white"/>
</svg>
