<svg width="242" height="32" viewBox="0 0 242 32" fill="none" xmlns="http://www.w3.org/2000/svg">
<g clip-path="url(#clip0_0_46)">
<path d="M11.9146 26L4.02431 12.225L3.86597 11.4069V26H2.16389V7.07917H3.04792L10.9382 20.8674L11.1097 21.6722V7.07917H12.8118V26H11.9146ZM17.1528 26V7.07917H27.8007V8.70208H18.8549V15.7347H26.0986V17.3576H18.8549V24.3771H27.8007V26H17.1528ZM35.6514 8.70208V26H33.9493V8.70208H29.4368V7.07917H40.1639V8.70208H35.6514ZM44.584 8.70208V15.7347H51.8278V17.3576H44.584V26H42.8819V7.07917H53.5299V8.70208H44.584ZM55.9576 26V7.07917H57.6597V24.3771H64.9035V26H55.9576ZM67.6083 26V7.07917H69.3104V26H67.6083ZM81.9243 26L78.0319 18.1361L74.1396 26H72.2924L77.1083 16.2757L72.5694 7.07917H74.4035L78.0319 14.4021L81.6472 7.07917H83.4813L78.9424 16.2757L83.7583 26H81.9243Z" fill="white"/>
<path d="M132.712 21.6194C132.712 22.2616 132.589 22.8641 132.343 23.4271C132.106 23.99 131.776 24.4826 131.353 24.9049C130.931 25.3271 130.439 25.6613 129.876 25.9076C129.313 26.1451 128.71 26.2639 128.068 26.2639H126.722C126.08 26.2639 125.473 26.1451 124.901 25.9076C124.338 25.6613 123.846 25.3271 123.424 24.9049C123.001 24.4826 122.667 23.99 122.421 23.4271C122.183 22.8641 122.065 22.2616 122.065 21.6194V11.4597C122.065 10.8176 122.183 10.215 122.421 9.65208C122.667 9.08912 123.001 8.59653 123.424 8.17431C123.846 7.75208 124.338 7.42222 124.901 7.18472C125.473 6.93843 126.08 6.81528 126.722 6.81528H128.068C128.71 6.81528 129.313 6.93843 129.876 7.18472C130.439 7.42222 130.931 7.75208 131.353 8.17431C131.776 8.59653 132.106 9.08912 132.343 9.65208C132.589 10.215 132.712 10.8176 132.712 11.4597V21.6194ZM131.01 11.4597C131.01 11.0375 130.931 10.6461 130.773 10.2854C130.615 9.91597 130.399 9.59491 130.126 9.32222C129.854 9.04954 129.533 8.83403 129.163 8.67569C128.803 8.51736 128.411 8.43819 127.989 8.43819H126.801C126.379 8.43819 125.983 8.51736 125.614 8.67569C125.253 8.83403 124.932 9.04954 124.651 9.32222C124.378 9.59491 124.162 9.91597 124.004 10.2854C123.846 10.6461 123.767 11.0375 123.767 11.4597V21.6194C123.767 22.0417 123.846 22.4375 124.004 22.8069C124.162 23.1676 124.378 23.4887 124.651 23.7701C124.932 24.0428 125.253 24.2583 125.614 24.4167C125.983 24.575 126.379 24.6542 126.801 24.6542H127.989C128.411 24.6542 128.803 24.575 129.163 24.4167C129.533 24.2583 129.854 24.0428 130.126 23.7701C130.399 23.4887 130.615 23.1676 130.773 22.8069C130.931 22.4375 131.01 22.0417 131.01 21.6194V11.4597ZM145.669 26L140.537 17.925H138.201V26H136.499V7.07917H142.503C143.145 7.07917 143.747 7.20231 144.31 7.44861C144.873 7.68611 145.366 8.01597 145.788 8.43819C146.21 8.86042 146.54 9.35741 146.778 9.92917C147.024 10.4921 147.147 11.0947 147.147 11.7368V13.2674C147.147 13.9095 147.024 14.5164 146.778 15.0882C146.54 15.6512 146.21 16.1437 145.788 16.566C145.366 16.9882 144.873 17.3225 144.31 17.5687C143.747 17.8062 143.145 17.925 142.503 17.925L147.635 26H145.669ZM145.445 11.7368C145.445 11.3146 145.366 10.9231 145.208 10.5625C145.049 10.1931 144.834 9.87199 144.561 9.59931C144.288 9.31782 143.967 9.09792 143.598 8.93958C143.237 8.78125 142.846 8.70208 142.424 8.70208H138.201V16.3021H142.424C142.846 16.3021 143.237 16.2229 143.598 16.0646C143.967 15.9062 144.288 15.6907 144.561 15.4181C144.834 15.1366 145.049 14.8155 145.208 14.4549C145.366 14.0854 145.445 13.6896 145.445 13.2674V11.7368ZM150.894 26V7.07917H152.596V26H150.894ZM167.308 26H166.767L165.778 24.4826C165.364 25.028 164.863 25.4634 164.274 25.7889C163.684 26.1056 163.029 26.2639 162.308 26.2639H161.318C160.676 26.2639 160.069 26.1451 159.497 25.9076C158.934 25.6613 158.442 25.3271 158.019 24.9049C157.597 24.4826 157.263 23.99 157.017 23.4271C156.779 22.8641 156.66 22.2616 156.66 21.6194V11.4597C156.66 10.8176 156.779 10.215 157.017 9.65208C157.263 9.08912 157.597 8.59653 158.019 8.17431C158.442 7.75208 158.934 7.42222 159.497 7.18472C160.069 6.93843 160.676 6.81528 161.318 6.81528H162.664C163.306 6.81528 163.909 6.93843 164.471 7.18472C165.034 7.42222 165.527 7.75208 165.949 8.17431C166.371 8.59653 166.701 9.08912 166.939 9.65208C167.185 10.215 167.308 10.8176 167.308 11.4597V12.225L165.606 12.4889V11.4597C165.606 11.0375 165.527 10.6461 165.369 10.2854C165.21 9.91597 164.995 9.59491 164.722 9.32222C164.449 9.04954 164.128 8.83403 163.759 8.67569C163.398 8.51736 163.007 8.43819 162.585 8.43819H161.397C160.975 8.43819 160.579 8.51736 160.21 8.67569C159.849 8.83403 159.528 9.04954 159.246 9.32222C158.974 9.59491 158.758 9.91597 158.6 10.2854C158.442 10.6461 158.362 11.0375 158.362 11.4597V21.6194C158.362 22.0417 158.442 22.4375 158.6 22.8069C158.758 23.1676 158.974 23.4887 159.246 23.7701C159.528 24.0428 159.849 24.2583 160.21 24.4167C160.579 24.575 160.975 24.6542 161.397 24.6542H162.585C163.007 24.6542 163.398 24.575 163.759 24.4167C164.128 24.2583 164.449 24.0428 164.722 23.7701C164.995 23.4887 165.21 23.1676 165.369 22.8069C165.527 22.4375 165.606 22.0417 165.606 21.6194V17.6743H162.585V16.0514H167.308V26ZM171.372 26V7.07917H173.074V26H171.372ZM187.166 26L179.276 12.225L179.117 11.4069V26H177.415V7.07917H178.299L186.19 20.8674L186.361 21.6722V7.07917H188.063V26H187.166ZM199.503 21.5931H193.512L192.272 26H190.504L196.046 7.07917H196.943L202.511 26H200.756L199.503 21.5931ZM193.974 19.9701H199.054L196.56 11.2486L196.508 10.5493L196.455 11.2486L193.974 19.9701ZM204.662 26V7.07917H206.364V24.3771H213.608V26H204.662Z" fill="white"/>
</g>
<defs>
<clipPath id="clip0_0_46">
<rect width="242" height="32" fill="white"/>
</clipPath>
</defs>
</svg>
