<svg version="1.2" xmlns="http://www.w3.org/2000/svg" viewBox="0 0 27 22" width="27" height="22"><defs><clipPath clipPathUnits="userSpaceOnUse" id="cp1"><path d="m-248-2632h1440v2939h-1440z"/></clipPath></defs><style>.a{fill:#999}</style><g clip-path="url(#cp1)"><path class="a" d="m26.8 2.5c-1 0.5-2 0.8-3.1 0.9 1.1-0.7 2-1.7 2.4-3-1.1 0.6-2.2 1.1-3.5 1.3-0.9-1-2.3-1.7-3.9-1.7-3 0-5.4 2.4-5.4 5.4q0 0.6 0.1 1.2c-4.5-0.2-8.5-2.3-11.1-5.6-0.5 0.8-0.8 1.7-0.8 2.7 0 1.9 1 3.5 2.4 4.5-0.8 0-1.7-0.3-2.4-0.7q0 0.1 0 0.1c0 2.6 1.9 4.8 4.3 5.3q-0.6 0.2-1.4 0.2-0.5 0-1-0.1c0.7 2.2 2.7 3.7 5 3.8-1.8 1.4-4.1 2.3-6.7 2.3q-0.6 0-1.3-0.1c2.4 1.5 5.3 2.4 8.3 2.4 10 0 15.4-8.2 15.4-15.4q0-0.3 0-0.7c1.1-0.7 2-1.7 2.7-2.8z"/></g></svg>