<svg version="1.2" xmlns="http://www.w3.org/2000/svg" viewBox="0 0 30 22" width="30" height="22"><defs><clipPath clipPathUnits="userSpaceOnUse" id="cp1"><path d="m-299-2632h1440v2939h-1440z"/></clipPath></defs><style>.a{fill:#999}</style><g clip-path="url(#cp1)"><path fill-rule="evenodd" class="a" d="m29.6 10.9q0 3-0.2 6 0 2-1.2 3.3-1.3 1.3-3 1.3-4.4 0.2-10.1 0.2-5.8 0-10.2-0.2-1.7 0-3-1.3-1.2-1.3-1.2-3.3-0.1-3-0.1-6 0-2 0.2-6.1 0-1.9 1.2-3.2 1.2-1.4 2.9-1.4 4.1-0.2 9.6-0.2h1.1q5.5 0 9.6 0.2 1.7 0 3 1.4 1.2 1.3 1.2 3.2 0.2 3.1 0.2 6.1zm-9.1 0l-8.2-5.6v11.1z"/></g></svg>